<?xml version="1.0" encoding="utf-8"?>
<!-- Generator: Adobe Illustrator 28.3.0, SVG Export Plug-In . SVG Version: 6.00 Build 0)  -->
<svg version="1.1" id="a" xmlns="http://www.w3.org/2000/svg" xmlns:xlink="http://www.w3.org/1999/xlink" x="0px" y="0px"
	 viewBox="0 0 647.9 175.2" style="enable-background:new 0 0 647.9 175.2;" xml:space="preserve">
<style type="text/css">
	.st0{fill:#FCFCFC;}
</style>
<g>
	<g>
		<g>
			<path class="st0" d="M174.7,35.4v128.4H60.9l-0.1-0.1l-47.4-30.4V8.8h120.1L174.7,35.4z M166.5,156.9V39.8l-36-23.4l-0.1-0.1H21
				v112l43,28.5L166.5,156.9L166.5,156.9z"/>
		</g>
		<g>
			<path class="st0" d="M87.1,105.2h-9.5V55.1L61.3,66.6v38.6h-9.5V54.4L35.5,65.1V51.8L52,39.7h9.3v11.1l16.6-11.1h9.3V105.2
				L87.1,105.2z"/>
		</g>
		<g>
			<path class="st0" d="M104.8,143.6h-9.9l-16.6-11.5v-13.4l16.4,10.7V40.3h10.1V143.6z"/>
		</g>
		<g>
			<path class="st0" d="M121.8,105.2h-9.5V40.3h9.5v10.5l17.3-11.1h8.6v26.5h-8.8V53.8l-17,11.5V105.2z"/>
		</g>
		<g>
			<g>
				<path class="st0" d="M129.3,143.3l-8.5-6.6l-8.5,6.6v-6.5l4.2-3l-4.2-3v-6.5l8.5,6.6l8.5-6.6v6.4l-3.6,3l3.6,3V143.3
					L129.3,143.3z"/>
			</g>
			<g>
				<polygon class="st0" points="128.7,137.2 128.7,142 120.9,136 113,142 113,137.2 117.6,133.9 113,130.5 113,125.7 120.9,131.7 
					128.7,125.7 128.7,130.5 124.8,133.9 				"/>
			</g>
		</g>
		<g>
			<path class="st0" d="M131.2,143.1v-10.1l12.6-2.5v-1.3h-13.2v-4.4h17.6v9.4l-12.6,2.5v5L131.2,143.1z"/>
		</g>
	</g>
	<g>
		<path class="st0" d="M234.6,30.2h9.3c1.4,0,2.1,0.7,2.1,2v49.9c0,2-0.6,3-1.8,3c-0.5,0-1.1-0.2-1.7-0.6c-0.6-0.4-1.4-1-2.3-2
			l-27.7-26v25.6c0,0.7-0.2,1.2-0.5,1.5c-0.3,0.3-0.9,0.5-1.6,0.5H201c-0.7,0-1.2-0.2-1.5-0.5c-0.3-0.3-0.5-0.8-0.5-1.5V32.2
			c0-2,0.6-3,1.8-3c0.5,0,1.1,0.2,1.7,0.6c0.6,0.4,1.4,1,2.3,2l27.7,26V32.2c0-0.7,0.2-1.2,0.5-1.5
			C233.4,30.4,233.9,30.2,234.6,30.2z"/>
		<path class="st0" d="M294,73.8v8.3c0,1.3-0.7,2-2.1,2h-32.4c-0.7,0-1.2-0.2-1.5-0.5c-0.3-0.3-0.5-0.8-0.5-1.5V32.2
			c0-0.7,0.2-1.2,0.5-1.5c0.3-0.3,0.8-0.5,1.5-0.5h32.3c1.4,0,2.1,0.7,2.1,2v8.3c0,0.7-0.2,1.2-0.5,1.5c-0.3,0.3-0.9,0.5-1.6,0.5
			h-19.8c-0.5,0-0.8,0.1-0.9,0.3c-0.2,0.2-0.2,0.5-0.2,0.9v6c0,0.5,0.1,0.8,0.2,0.9c0.2,0.2,0.5,0.2,0.9,0.2h17.2
			c0.7,0,1.2,0.2,1.5,0.5c0.3,0.3,0.5,0.9,0.5,1.6v8.2c0,0.7-0.2,1.2-0.5,1.5c-0.3,0.3-0.8,0.5-1.5,0.5h-17.2
			c-0.5,0-0.8,0.1-0.9,0.3c-0.2,0.2-0.2,0.5-0.2,0.9v6.3c0,0.4,0.1,0.7,0.2,0.9c0.2,0.2,0.5,0.3,0.9,0.3h19.9c0.7,0,1.2,0.2,1.6,0.5
			C293.8,72.6,294,73.1,294,73.8z"/>
		<path class="st0" d="M336.4,30.6c0.5-0.3,1.2-0.4,2.2-0.4h10.2c1.1,0,1.6,0.3,1.6,1c0,0.4-0.2,0.8-0.5,1.2l-19,31.7v17.9
			c0,0.7-0.2,1.2-0.5,1.5c-0.3,0.3-0.8,0.5-1.5,0.5h-9.4c-0.7,0-1.2-0.2-1.5-0.5c-0.3-0.3-0.5-0.8-0.5-1.5V64.6l-19.2-32.1
			c-0.3-0.5-0.5-0.9-0.5-1.2c0-0.7,0.5-1,1.6-1h10.6c1,0,1.7,0.1,2.2,0.4c0.5,0.3,0.9,0.8,1.5,1.8l10.6,18.8L335,32.4
			C335.5,31.5,336,30.9,336.4,30.6z"/>
		<path class="st0" d="M368.7,83.7c-0.3,0.3-0.9,0.5-1.6,0.5h-9.3c-0.7,0-1.2-0.2-1.5-0.5c-0.3-0.3-0.5-0.8-0.5-1.5V32.4
			c0-0.9,0.2-1.6,0.5-2.2c0.3-0.5,0.8-0.8,1.4-0.8c0.5,0,0.9,0.2,1.5,0.5c0.5,0.4,1.1,0.9,1.8,1.8l22.2,24l22.1-24
			c0.8-0.9,1.5-1.5,1.9-1.8s0.9-0.5,1.4-0.5c1.2,0,1.8,1,1.8,2.9v49.7c0,0.7-0.2,1.2-0.5,1.5c-0.3,0.3-0.8,0.5-1.5,0.5h-9.3
			c-1.4,0-2.1-0.7-2.1-2V58.9l-11,12.6c-0.7,0.8-1.3,1.3-1.7,1.6c-0.4,0.3-0.8,0.5-1.2,0.5c-0.4,0-0.8-0.2-1.2-0.5
			c-0.4-0.3-0.9-0.8-1.6-1.6l-11-12.6v23.3C369.2,82.8,369.1,83.4,368.7,83.7z"/>
		<path class="st0" d="M429.2,83.6c-0.5,0.3-1.3,0.5-2.2,0.5h-9.4c-1.1,0-1.7-0.4-1.7-1.1c0-0.5,0.1-0.9,0.4-1.4l24.6-48.9
			c0.7-1.5,1.3-2.5,1.8-3.1c0.5-0.6,1.1-0.8,1.7-0.8s1.2,0.3,1.7,0.8s1.1,1.6,1.9,3.1l24.7,48.9c0.3,0.5,0.4,0.9,0.4,1.3
			c0,0.8-0.6,1.2-1.8,1.2h-9.9c-1,0-1.7-0.2-2.2-0.5c-0.5-0.3-1-1-1.4-2l-13.6-28l-13.5,28C430.2,82.6,429.7,83.3,429.2,83.6z"/>
		<path class="st0" d="M489.8,84.1h-9.3c-0.7,0-1.2-0.2-1.5-0.5c-0.3-0.3-0.5-0.8-0.5-1.5V32.2c0-0.7,0.2-1.2,0.5-1.5
			c0.3-0.3,0.8-0.5,1.5-0.5h17.6c8.1,0,14.1,1.5,18,4.4c4,3,5.9,7.5,5.9,13.7c0,6.5-3,11.2-9.1,14.1l11.8,19.2
			c0.4,0.5,0.5,1,0.5,1.4c0,0.7-0.6,1.1-1.9,1.1h-10c-1.1,0-1.9-0.1-2.4-0.4c-0.5-0.3-1.1-0.9-1.6-1.9L497,60.4
			c-0.1-0.1-0.1-0.2-0.3-0.5c-0.1-0.3-0.2-0.5-0.2-0.7c0-0.5,0.5-0.8,1.5-1c3-0.4,5.4-1.2,7.3-2.7c1.9-1.4,2.8-3.4,2.8-5.9
			c0-2.6-0.9-4.6-2.6-5.8c-1.7-1.3-4.3-1.9-7.8-1.9H493c-0.5,0-0.8,0.1-0.9,0.2c-0.2,0.2-0.2,0.5-0.2,0.9v39c0,0.7-0.2,1.2-0.5,1.5
			C491,84,490.5,84.1,489.8,84.1z"/>
		<path class="st0" d="M545,87c0.4,0,0.9,0,1.6,0.1c0.7,0.1,1.3,0.1,1.8,0.1c1.7,0,3.1-0.7,4.2-2c1-1.3,1.5-3.2,1.5-5.7V32.2
			c0-0.7,0.2-1.2,0.5-1.5c0.3-0.3,0.9-0.5,1.6-0.5h9.3c0.7,0,1.2,0.2,1.5,0.5s0.5,0.8,0.5,1.5v48.3c0,6.1-1.4,10.8-4.1,14.1
			s-7.1,4.9-13.2,4.9c-2.6,0-4.5-0.2-5.9-0.5c-0.7-0.2-1.2-0.5-1.4-0.8c-0.2-0.4-0.3-0.9-0.2-1.7l0.8-7.5c0.1-0.7,0.2-1.2,0.4-1.5
			C544.1,87.1,544.5,87,545,87z"/>
		<path class="st0" d="M590,84.1h-9.3c-0.7,0-1.2-0.2-1.5-0.5c-0.3-0.3-0.5-0.8-0.5-1.5V32.2c0-0.7,0.2-1.2,0.5-1.5
			c0.3-0.3,0.8-0.5,1.5-0.5h17.6c8.1,0,14.1,1.5,18,4.4c4,3,5.9,7.5,5.9,13.7c0,6.5-3,11.2-9.1,14.1l11.8,19.2
			c0.4,0.5,0.5,1,0.5,1.4c0,0.7-0.6,1.1-1.9,1.1h-10c-1.1,0-1.9-0.1-2.4-0.4c-0.5-0.3-1.1-0.9-1.6-1.9l-12.3-21.4
			c-0.1-0.1-0.1-0.2-0.3-0.5c-0.1-0.3-0.2-0.5-0.2-0.7c0-0.5,0.5-0.8,1.5-1c3-0.4,5.4-1.2,7.3-2.7c1.9-1.4,2.8-3.4,2.8-5.9
			c0-2.6-0.9-4.6-2.6-5.8c-1.7-1.3-4.3-1.9-7.8-1.9h-4.8c-0.5,0-0.8,0.1-0.9,0.2c-0.2,0.2-0.2,0.5-0.2,0.9v39c0,0.7-0.2,1.2-0.5,1.5
			C591.2,84,590.7,84.1,590,84.1z"/>
		<path class="st0" d="M232,148.6v7.6c0,1.2-0.6,1.8-1.9,1.8h-29.8c-0.6,0-1.1-0.2-1.4-0.5c-0.3-0.3-0.5-0.8-0.5-1.4v-45.8
			c0-0.7,0.2-1.1,0.5-1.4c0.3-0.3,0.8-0.4,1.4-0.4h29.7c1.3,0,1.9,0.6,1.9,1.8v7.6c0,0.7-0.2,1.1-0.5,1.4c-0.3,0.3-0.8,0.4-1.4,0.4
			h-18.2c-0.4,0-0.7,0.1-0.8,0.2s-0.2,0.4-0.2,0.8v5.5c0,0.4,0.1,0.7,0.2,0.8c0.1,0.1,0.4,0.2,0.8,0.2h15.8c0.7,0,1.1,0.2,1.4,0.5
			c0.3,0.3,0.4,0.8,0.4,1.5v7.6c0,0.6-0.1,1.1-0.4,1.4c-0.3,0.3-0.8,0.5-1.4,0.5h-15.8c-0.4,0-0.7,0.1-0.8,0.2s-0.2,0.4-0.2,0.8v5.8
			c0,0.4,0.1,0.6,0.2,0.8s0.4,0.2,0.8,0.2h18.2c0.7,0,1.1,0.1,1.5,0.4S232,148,232,148.6z"/>
		<path class="st0" d="M284.2,157.1c0,0.3-0.1,0.6-0.4,0.7s-0.6,0.2-1.1,0.2h-10.7c-0.9,0-1.6-0.1-2-0.4c-0.4-0.3-0.9-0.8-1.4-1.7
			l-8.8-13.6l-8.9,13.9c-0.5,0.8-0.9,1.2-1.3,1.5c-0.4,0.2-1,0.3-1.8,0.3h-10.3c-0.5,0-0.9-0.1-1.2-0.2s-0.4-0.4-0.4-0.7
			c0-0.3,0.1-0.6,0.4-1.1l15.5-22.8l-15.1-22.6c-0.3-0.4-0.4-0.8-0.4-1.1c0-0.3,0.1-0.6,0.4-0.7c0.3-0.2,0.7-0.2,1.1-0.2h10.7
			c0.9,0,1.6,0.1,2,0.4c0.4,0.3,0.9,0.8,1.4,1.7l8.3,13.2l8.6-13.5c0.5-0.8,0.9-1.2,1.3-1.4c0.4-0.2,1-0.3,1.8-0.3h10.3
			c1,0,1.5,0.3,1.5,0.9c0,0.2-0.1,0.6-0.4,1.1l-15.1,22.4l15.5,23C284.1,156.5,284.2,156.8,284.2,157.1z"/>
		<path class="st0" d="M301.5,145.9v10.4c0,0.7-0.2,1.1-0.5,1.4c-0.3,0.3-0.8,0.4-1.4,0.4h-8.6c-0.6,0-1.1-0.2-1.4-0.5
			c-0.3-0.3-0.5-0.8-0.5-1.4v-45.8c0-0.7,0.2-1.1,0.5-1.4c0.3-0.3,0.8-0.4,1.4-0.4h16.6c14.6,0,21.9,6,21.9,17.9
			c0,6-1.9,10.6-5.7,13.7s-9.4,4.6-16.6,4.6h-4.6c-0.4,0-0.7,0.1-0.8,0.2S301.5,145.5,301.5,145.9z M301.5,121v11.5
			c0,0.4,0.1,0.6,0.2,0.8s0.4,0.2,0.8,0.2h4.6c3.2,0,5.6-0.6,7.2-1.7c1.6-1.2,2.4-2.9,2.4-5.2c0-2.3-0.8-4-2.4-5.1
			c-1.6-1.1-4-1.6-7.2-1.6h-4.6c-0.4,0-0.7,0.1-0.8,0.2S301.5,120.6,301.5,121z"/>
		<path class="st0" d="M370.5,148.6v7.6c0,1.2-0.6,1.8-1.9,1.8h-29.8c-0.6,0-1.1-0.2-1.4-0.5c-0.3-0.3-0.5-0.8-0.5-1.4v-45.8
			c0-0.7,0.2-1.1,0.5-1.4c0.3-0.3,0.8-0.4,1.4-0.4h29.7c1.3,0,1.9,0.6,1.9,1.8v7.6c0,0.7-0.2,1.1-0.5,1.4c-0.3,0.3-0.8,0.4-1.4,0.4
			h-18.2c-0.4,0-0.7,0.1-0.8,0.2s-0.2,0.4-0.2,0.8v5.5c0,0.4,0.1,0.7,0.2,0.8c0.1,0.1,0.4,0.2,0.8,0.2h15.8c0.7,0,1.1,0.2,1.4,0.5
			c0.3,0.3,0.4,0.8,0.4,1.5v7.6c0,0.6-0.1,1.1-0.4,1.4c-0.3,0.3-0.8,0.5-1.4,0.5h-15.8c-0.4,0-0.7,0.1-0.8,0.2s-0.2,0.4-0.2,0.8v5.8
			c0,0.4,0.1,0.6,0.2,0.8s0.4,0.2,0.8,0.2h18.2c0.7,0,1.1,0.1,1.5,0.4S370.5,148,370.5,148.6z"/>
		<path class="st0" d="M389.4,158.1h-8.6c-0.6,0-1.1-0.2-1.4-0.5c-0.3-0.3-0.5-0.8-0.5-1.4v-45.8c0-0.7,0.2-1.1,0.5-1.4
			c0.3-0.3,0.8-0.4,1.4-0.4H397c7.4,0,12.9,1.4,16.5,4.1s5.4,6.9,5.4,12.6c0,5.9-2.8,10.3-8.3,12.9l10.8,17.7
			c0.3,0.5,0.5,0.9,0.5,1.3c0,0.7-0.6,1-1.8,1H411c-1,0-1.7-0.1-2.2-0.4c-0.5-0.3-1-0.8-1.5-1.7L396,136.3c0,0-0.1-0.2-0.2-0.5
			c-0.1-0.3-0.2-0.5-0.2-0.7c0-0.5,0.5-0.8,1.4-0.9c2.7-0.3,5-1.1,6.7-2.4c1.7-1.3,2.6-3.1,2.6-5.4c0-2.4-0.8-4.2-2.4-5.3
			c-1.6-1.2-4-1.7-7.1-1.7h-4.4c-0.4,0-0.7,0.1-0.8,0.2s-0.2,0.4-0.2,0.8v35.9c0,0.7-0.2,1.1-0.5,1.4
			C390.5,158,390,158.1,389.4,158.1z"/>
		<path class="st0" d="M438,158.1h-8.6c-0.6,0-1.1-0.2-1.4-0.5c-0.3-0.3-0.5-0.8-0.5-1.4v-45.8c0-0.7,0.2-1.1,0.5-1.4
			c0.3-0.3,0.8-0.4,1.4-0.4h8.6c0.7,0,1.1,0.1,1.4,0.4c0.3,0.3,0.5,0.8,0.5,1.4v45.8c0,0.7-0.2,1.1-0.5,1.4
			C439.2,158,438.7,158.1,438,158.1z"/>
		<path class="st0" d="M484.1,148.6v7.6c0,1.2-0.6,1.8-1.9,1.8h-29.8c-0.6,0-1.1-0.2-1.4-0.5c-0.3-0.3-0.5-0.8-0.5-1.4v-45.8
			c0-0.7,0.2-1.1,0.5-1.4c0.3-0.3,0.8-0.4,1.4-0.4h29.7c1.3,0,1.9,0.6,1.9,1.8v7.6c0,0.7-0.2,1.1-0.5,1.4c-0.3,0.3-0.8,0.4-1.4,0.4
			h-18.2c-0.4,0-0.7,0.1-0.8,0.2s-0.2,0.4-0.2,0.8v5.5c0,0.4,0.1,0.7,0.2,0.8c0.1,0.1,0.4,0.2,0.8,0.2h15.8c0.7,0,1.1,0.2,1.4,0.5
			c0.3,0.3,0.4,0.8,0.4,1.5v7.6c0,0.6-0.1,1.1-0.4,1.4c-0.3,0.3-0.8,0.5-1.4,0.5h-15.8c-0.4,0-0.7,0.1-0.8,0.2s-0.2,0.4-0.2,0.8v5.8
			c0,0.4,0.1,0.6,0.2,0.8s0.4,0.2,0.8,0.2h18.2c0.7,0,1.1,0.1,1.5,0.4S484.1,148,484.1,148.6z"/>
		<path class="st0" d="M525.2,108.6h8.6c1.3,0,1.9,0.6,1.9,1.8v45.8c0,1.8-0.6,2.8-1.7,2.8c-0.5,0-1-0.2-1.5-0.5s-1.3-1-2.2-1.8
			l-25.5-23.9v23.5c0,0.7-0.2,1.1-0.5,1.4c-0.3,0.3-0.8,0.4-1.4,0.4h-8.6c-0.6,0-1.1-0.2-1.4-0.5c-0.3-0.3-0.5-0.8-0.5-1.4v-45.8
			c0-1.8,0.6-2.8,1.7-2.8c0.5,0,1,0.2,1.5,0.5c0.5,0.4,1.3,1,2.2,1.8l25.5,23.9v-23.5c0-0.7,0.2-1.1,0.5-1.4
			C524.2,108.8,524.6,108.6,525.2,108.6z"/>
		<path class="st0" d="M583.8,142.9c0.2,0,0.4,0.1,0.6,0.2c0.2,0.1,0.4,0.4,0.6,0.6l4,5.8c0.3,0.4,0.4,0.8,0.4,1.2
			c0,0.4-0.4,1-1.1,1.6c-2.5,2.1-5.4,3.8-8.6,4.9s-6.5,1.7-10,1.7c-5,0-9.4-1.1-13.4-3.3s-7.2-5.2-9.4-9.1s-3.4-8.2-3.4-13
			c0-5,1.2-9.4,3.5-13.3c2.3-3.9,5.5-7,9.6-9.3c4.1-2.2,8.7-3.4,13.8-3.4c3.5,0,6.8,0.6,9.9,1.8c3.1,1.2,5.9,2.8,8.4,4.9
			c0.6,0.5,0.8,0.9,0.8,1.3c0,0.4-0.2,0.8-0.5,1.3l-4.1,5.8c-0.4,0.6-0.9,0.9-1.3,0.9c-0.4,0-0.9-0.2-1.4-0.6
			c-3.8-2.7-7.8-4.1-11.8-4.1c-2.7,0-5.1,0.6-7.2,1.8c-2.1,1.2-3.8,2.9-5,5.1c-1.2,2.2-1.8,4.7-1.8,7.5c0,2.7,0.6,5.2,1.8,7.4
			s2.9,3.9,5,5.1s4.6,1.8,7.2,1.8c4.3,0,8.3-1.4,12-4.2C582.9,143.1,583.4,142.9,583.8,142.9z"/>
		<path class="st0" d="M630.1,148.6v7.6c0,1.2-0.6,1.8-1.9,1.8h-29.8c-0.6,0-1.1-0.2-1.4-0.5c-0.3-0.3-0.5-0.8-0.5-1.4v-45.8
			c0-0.7,0.2-1.1,0.5-1.4c0.3-0.3,0.8-0.4,1.4-0.4h29.7c1.3,0,1.9,0.6,1.9,1.8v7.6c0,0.7-0.2,1.1-0.5,1.4c-0.3,0.3-0.8,0.4-1.4,0.4
			H610c-0.4,0-0.7,0.1-0.8,0.2s-0.2,0.4-0.2,0.8v5.5c0,0.4,0.1,0.7,0.2,0.8c0.1,0.1,0.4,0.2,0.8,0.2h15.8c0.7,0,1.1,0.2,1.4,0.5
			c0.3,0.3,0.4,0.8,0.4,1.5v7.6c0,0.6-0.1,1.1-0.4,1.4c-0.3,0.3-0.8,0.5-1.4,0.5H610c-0.4,0-0.7,0.1-0.8,0.2s-0.2,0.4-0.2,0.8v5.8
			c0,0.4,0.1,0.6,0.2,0.8s0.4,0.2,0.8,0.2h18.2c0.7,0,1.1,0.1,1.5,0.4S630.1,148,630.1,148.6z"/>
	</g>
</g>
</svg>
